<?xml version="1.0" encoding="UTF-8"?>
<!DOCTYPE svg PUBLIC "-//W3C//DTD SVG 1.1//EN" "http://www.w3.org/Graphics/SVG/1.1/DTD/svg11.dtd">
<!-- Creator: CorelDRAW X7 -->
<svg xmlns="http://www.w3.org/2000/svg" xml:space="preserve" width="229px" height="145px" version="1.1" style="shape-rendering:geometricPrecision; text-rendering:geometricPrecision; image-rendering:optimizeQuality; fill-rule:evenodd; clip-rule:evenodd"
viewBox="0 0 22900 14500"
 xmlns:xlink="http://www.w3.org/1999/xlink">
 <defs>
  <style type="text/css">
   <![CDATA[
    .fil0 {fill:none}
    .fil2 {fill:#A7B0CC}
    .fil1 {fill:#163763}
   ]]>
  </style>
 </defs>
 <g id="Layer_x0020_1">
  <metadata id="CorelCorpID_0Corel-Layer"/>
  <rect class="fil0" width="22900" height="14500"/>
  <g id="_1033639488">
   <path class="fil1" d="M3836 9051l-20 95 0 150 -113 -107c-18,-17 -36,-33 -54,-48 -20,-16 -40,-32 -61,-48l-1 -1c-32,-25 -66,-48 -101,-70 -36,-23 -74,-43 -112,-62 -40,-19 -80,-36 -122,-51 -41,-15 -85,-28 -130,-39l-2 -1c-45,-12 -90,-22 -136,-28 -46,-6 -94,-9 -143,-9l0 0c-106,0 -207,10 -300,30 -94,20 -180,49 -261,89 -162,79 -297,188 -406,320 -114,138 -199,302 -255,483l0 1c-29,91 -50,185 -64,282 -14,98 -22,199 -22,304 0,112 8,219 22,320 14,102 35,198 64,290l0 0c58,178 144,340 258,477 107,128 239,235 398,313l0 0c79,36 164,64 252,82 90,18 185,27 286,27 48,0 96,-2 142,-7 46,-5 92,-12 138,-21l0 0c46,-11 93,-24 139,-38 47,-15 91,-31 134,-48l0 0c40,-18 82,-38 125,-60 40,-21 80,-42 118,-64l0 0c19,-12 37,-24 54,-35 18,-12 36,-24 53,-37l117 -82 -12 142 -11 144 -3 34 -29 18c-64,38 -131,73 -202,104 -71,30 -147,58 -229,82l-1 0c-85,24 -176,42 -274,54 -97,12 -201,18 -312,18 -133,0 -260,-9 -381,-29 -121,-19 -234,-48 -340,-86l-1 0c-106,-41 -204,-89 -293,-146 -90,-57 -172,-122 -245,-196l-2 -1c-71,-75 -135,-158 -192,-249 -56,-91 -104,-189 -144,-294l0 -1c-38,-107 -67,-221 -86,-343 -20,-121 -29,-249 -29,-382 0,-131 11,-256 33,-374 23,-118 57,-229 101,-333l1 -1c46,-104 102,-200 165,-289 63,-88 135,-168 215,-240 82,-74 171,-139 268,-195 95,-56 198,-103 309,-142l0 0c112,-40 230,-70 353,-90 123,-20 251,-30 383,-30 95,0 189,6 283,18 95,12 186,30 275,54l0 0c78,19 150,39 218,60 68,21 131,43 189,66l60 24 -22 61c-9,24 -17,46 -23,67 -7,22 -13,44 -19,69l0 -1zm17509 5087c43,28 86,53 132,75 45,21 91,39 139,54 47,15 94,26 139,33 45,7 89,11 131,11 56,0 105,-6 148,-17 42,-10 78,-27 108,-48 30,-22 53,-46 67,-72 15,-26 22,-55 22,-86 0,-33 -7,-62 -21,-86 -15,-24 -36,-44 -65,-59 -30,-15 -68,-27 -113,-35 -47,-9 -101,-15 -163,-16 -46,-1 -89,-3 -130,-6 -40,-2 -79,-6 -114,-10 -36,-4 -69,-11 -99,-19 -30,-8 -58,-18 -82,-29l0 0c-25,-12 -47,-26 -66,-42 -19,-17 -35,-35 -48,-56 -13,-21 -23,-44 -29,-71 -7,-27 -10,-56 -10,-88 0,-51 11,-97 34,-139l0 0c22,-42 56,-80 100,-112 44,-33 97,-57 158,-74 61,-16 131,-24 209,-24 103,0 202,15 299,44 98,29 192,73 283,132l7 5 -4 7 -95 154 -5 8 -7 -5c-39,-25 -78,-48 -119,-67 -40,-19 -81,-36 -123,-49l0 0c-42,-13 -83,-23 -123,-30 -40,-6 -78,-10 -116,-10 -47,0 -89,4 -125,12 -36,8 -67,20 -92,35 -25,16 -44,33 -56,52 -12,19 -18,40 -18,62l0 0c0,27 7,49 21,66 14,18 35,31 64,41 30,9 68,17 114,22 46,5 101,7 163,7 194,0 339,32 436,97l0 0c98,66 148,164 148,295 0,27 -3,54 -10,80 -6,26 -15,51 -27,75 -12,25 -27,48 -45,69 -18,21 -38,41 -62,59 -23,18 -49,34 -77,48 -29,14 -59,27 -93,37 -33,11 -69,19 -106,24 -37,6 -77,8 -118,8 -57,0 -115,-4 -172,-12 -58,-8 -115,-20 -172,-37 -57,-16 -112,-36 -165,-59 -53,-24 -104,-51 -153,-82l-7 -4 4 -8 92 -157 4 -8 8 5zm-2705 -884l1114 0 9 0 0 9 0 171 0 9 -9 0 -923 0 0 282 603 0 9 0 0 9 0 171 0 9 -9 0 -603 0 0 360 975 0 9 0 0 9 0 171 0 9 -9 0 -1166 0 -9 0 0 -9 0 -1191 0 -9 9 0zm-1878 -3l189 0 9 0 0 9 0 1197 0 9 -9 0 -189 0 -9 0 0 -9 0 -1197 0 -9 9 0zm-2006 503c64,0 111,-13 142,-39 31,-26 46,-65 46,-117 0,-51 -15,-89 -46,-114 -31,-25 -78,-38 -142,-38l-625 0 0 308 625 0zm-634 709l-186 0 -9 0 0 -9 0 -1189 0 -9 9 0 820 0c62,0 117,8 166,23 48,14 90,37 126,67 35,30 62,66 79,108 18,42 27,89 27,143 0,43 -7,83 -21,120 -13,38 -33,73 -60,104 -27,32 -59,58 -96,78 -33,18 -71,30 -112,39l324 511 9 14 -16 0 -203 0 -5 0 -2 -4 -335 -516 -506 0 0 511 0 9 -9 0zm-2901 -1209l1115 0 8 0 0 9 0 171 0 9 -8 0 -923 0 0 282 603 0 8 0 0 9 0 171 0 9 -8 0 -603 0 0 360 974 0 9 0 0 9 0 171 0 9 -9 0 -1166 0 -9 0 0 -9 0 -1191 0 -9 9 0zm-2560 0l183 0 8 0 0 9 0 1011 877 0 9 0 0 9 0 171 0 9 -9 0 -1068 0 -9 0 0 -9 0 -1191 0 -9 9 0zm-2561 0l183 0 9 0 0 9 0 1011 877 0 9 0 0 9 0 171 0 9 -9 0 -1069 0 -9 0 0 -9 0 -1191 0 -9 9 0zm-1906 731l-217 -429 -220 429 437 0zm-277 -731l117 0 6 0 2 4 612 1192 6 13 -14 0 -200 0 -6 0 -2 -5 -152 -298 -618 0 -152 298 -2 5 -6 0 -197 0 -15 0 7 -13 606 -1192 2 -4 6 0zm-2486 557l491 0 9 0 0 9 0 360 0 2 -1 3c-35,52 -75,98 -120,137 -45,39 -96,72 -151,99l0 0c-56,26 -116,46 -181,59 -65,14 -135,20 -210,20 -57,0 -111,-4 -163,-12 -51,-8 -101,-21 -147,-37 -47,-16 -90,-36 -130,-58 -40,-22 -77,-48 -110,-76 -34,-29 -63,-60 -89,-94 -25,-33 -47,-69 -65,-108 -18,-39 -31,-79 -40,-121 -9,-42 -14,-86 -14,-131 0,-45 5,-88 14,-130 9,-42 23,-82 41,-121 19,-39 41,-76 67,-110 26,-34 55,-66 88,-95l0 0c34,-29 70,-55 110,-77 40,-23 83,-42 129,-59 46,-16 95,-28 147,-37 51,-8 105,-12 162,-12 140,0 264,24 370,71 106,47 196,118 268,213l6 7 -7 5 -143 103 -7 5 -6 -7c-24,-32 -53,-61 -86,-87 -33,-25 -71,-47 -113,-65 -42,-19 -87,-33 -134,-42l0 0c-47,-9 -96,-14 -148,-14 -42,0 -81,3 -119,9 -37,6 -73,15 -107,27 -34,12 -65,25 -94,41 -29,16 -55,34 -79,55 -24,20 -45,42 -63,66 -19,23 -34,49 -47,77 -13,27 -23,56 -30,85 -6,29 -9,59 -9,90 0,31 3,61 9,90 6,30 16,58 28,86 13,27 28,53 46,77 19,24 40,46 63,66 24,20 51,38 79,54 29,16 60,30 94,42 34,11 70,20 108,26 38,6 78,9 121,9 26,0 52,-1 78,-4 25,-3 50,-7 74,-12 25,-5 48,-11 70,-18 22,-7 43,-15 63,-24 19,-9 38,-19 55,-29 18,-11 34,-22 49,-34 15,-11 28,-23 39,-36 11,-11 21,-23 29,-36l0 -118 -294 0 -9 0 0 -9 0 -171 0 -9 9 0zm10436 -9952c-26,1439 -287,2621 -288,2624l0 0c-3,15 -17,26 -33,26 -18,0 -33,-15 -33,-33l-4 -5286c-1,-14 8,-28 22,-33 18,-6 37,4 43,21 1,3 323,949 293,2681zm-1270 1102c147,525 191,846 197,895 0,1 1,3 1,5l0 1 0 0c0,13 -8,25 -20,31 -17,7 -37,-1 -44,-18l-1606 -3707c-5,-11 -4,-25 3,-35 11,-15 32,-18 47,-7 2,2 552,408 1082,1808 151,396 260,742 340,1027zm-877 767c860,758 1515,1466 1841,1835 325,-369 980,-1077 1840,-1835 1307,-1151 2463,-1733 2467,-1735 16,-8 36,-1 45,15 7,15 3,32 -10,42l-4262 3604c88,102 138,162 146,172 11,12 12,31 1,44 -12,14 -33,16 -47,4l-180 -152 -181 152c-14,12 -35,10 -47,-4 -11,-13 -10,-32 1,-44 8,-10 58,-71 147,-172l-4263 -3604c-12,-10 -17,-27 -9,-42 8,-16 28,-23 45,-15 3,2 1159,584 2466,1735zm-9270 6818l22000 0 0 156 -22000 0 0 -156zm6789 -562c-23,-1 -44,-3 -64,-3 -18,-1 -41,-1 -69,-1 -25,0 -46,0 -64,1 -21,0 -44,2 -70,3l0 0 -106 8 -37 2 -22 -30c-28,-39 -51,-72 -69,-96 -21,-29 -43,-58 -65,-88l-2 -2c-23,-33 -45,-64 -67,-94 -24,-32 -47,-62 -70,-91l-2 -2c-22,-30 -44,-60 -67,-90 -21,-27 -45,-57 -70,-90l-1 -1 -158 -210 1 0 -172 -215 -1 -1c-22,-29 -46,-60 -72,-93 -27,-34 -52,-65 -74,-91l-3 -3c-103,-137 -219,-270 -336,-402l-169 0 0 1527 0 73 -73 -7 -46 -4 -1 0c-15,-1 -30,-3 -44,-3 -14,-1 -31,-1 -51,-1 -37,0 -72,1 -105,4l-46 4 -73 7 0 -73 0 -3153 0 -67 67 0 981 0c71,0 143,3 213,9 71,7 138,17 201,29l0 0c63,11 122,27 178,47 57,21 109,46 155,74l0 1c47,27 88,59 124,96 37,38 69,81 95,128l-1 0c27,45 48,96 62,153 13,57 20,118 20,185 0,87 -9,167 -28,239 -20,73 -49,138 -88,196l0 1c-123,178 -270,289 -436,365 -131,60 -273,97 -423,128l236 301c38,48 73,92 104,132 11,15 43,56 97,126l0 0c42,53 74,93 95,120 27,35 59,76 96,123l0 0c75,89 147,181 220,272 78,98 156,195 236,290 24,28 46,54 65,78 17,20 39,47 67,81l97 120 -154 -11 -10 -1 -1 0zm-654 -2722c-11,-37 -25,-72 -42,-102 -16,-28 -35,-53 -56,-75l0 0c-88,-88 -190,-138 -300,-167 -114,-29 -238,-36 -364,-36 -83,0 -162,2 -238,5 -57,2 -116,5 -175,9l0 1300c47,2 94,4 144,4l110 0c90,0 171,-4 246,-13 75,-8 142,-21 202,-39l0 0c102,-29 199,-81 281,-150 78,-67 142,-149 183,-242l0 0c16,-38 27,-78 35,-121 8,-43 12,-90 12,-139 0,-42 -3,-82 -9,-119 -7,-39 -16,-76 -28,-112l-1 -3zm13720 2653l0 -3138 0 -73 73 7 37 3c15,2 32,3 51,4 15,0 34,1 58,1 24,0 43,-1 58,-1 17,-1 32,-2 47,-4l0 0 41 -4 74 -7 0 74 0 2963c91,0 163,0 217,-1 71,-1 140,-2 205,-3 61,-2 121,-4 181,-5l0 0c56,-2 112,-3 167,-5l0 0c49,-3 101,-6 154,-10 45,-3 91,-6 135,-9l0 0c26,-3 56,-6 90,-10 27,-3 57,-7 89,-10l84 -10 -10 83 0 8 0 1c-2,14 -3,26 -4,35 -1,12 -1,20 -1,26l0 0c0,9 0,18 1,28 1,11 2,24 3,38l1 0 1 11 9 76 -76 0 -1618 0 -67 0 0 -68zm-2322 -3282l34 0 44 0 18 40 1383 3224 44 101 -110 -8 -34 -3 0 0c-22,-2 -41,-3 -58,-3 -16,-1 -36,-1 -61,-1 -25,0 -45,0 -62,1 -18,0 -39,1 -62,3l-84 6 -51 4 -17 -49c-12,-33 -30,-84 -54,-150 -19,-55 -38,-107 -56,-156l0 -1c-21,-58 -43,-116 -65,-176 -21,-55 -41,-106 -60,-154l0 -1c-18,-47 -37,-95 -57,-144 -19,-46 -42,-98 -67,-156l-1 -2c-21,-52 -44,-110 -71,-173 -20,-48 -38,-92 -55,-131l-1205 0c-21,52 -39,97 -53,132 -22,54 -45,111 -69,173l0 1c-23,57 -43,107 -60,151 -18,45 -36,93 -55,145l-1 2c-6,15 -16,41 -29,76 -11,29 -22,57 -32,86l-1 0c-10,31 -20,60 -29,86 -12,35 -23,65 -33,91 -9,29 -19,60 -29,90 -11,32 -22,63 -33,92l0 0c-6,17 -12,36 -18,57 -6,19 -12,38 -17,56l-15 55 -57 -6 -36 -4c-14,-1 -29,-3 -43,-3 -13,-1 -29,-1 -47,-1 -13,0 -24,0 -32,0 -12,1 -24,2 -35,3l-113 10 46 -104 1437 -3220 18 -39 43 0zm-609 1853l1028 0 -519 -1196 -509 1196zm-1363 -1507c-37,-3 -76,-6 -107,-8l-1 0c-79,-7 -166,-12 -262,-15 -92,-3 -199,-4 -322,-4l0 2982 0 73 -73 -7 -37 -3 0 0c-16,-2 -32,-3 -51,-4 -15,-1 -34,-1 -58,-1 -25,0 -45,0 -61,1 -19,1 -37,2 -54,3l0 1 -31 3 -74 7 0 -74 0 -2981c-129,0 -243,1 -341,4 -103,3 -197,8 -282,15 -76,6 -136,11 -180,15 -53,4 -108,10 -163,15l-85 9 12 -85c2,-11 3,-23 4,-35l0 0c1,-10 1,-22 1,-33 0,-23 -2,-45 -4,-66l0 -1 -2 -10 -10 -76 76 0 2339 0 76 0 -10 76 -1 11 0 1c-2,10 -3,21 -4,32 0,10 -1,21 -1,33 0,12 1,23 1,33 1,11 2,22 4,33l12 84 -85 -9c-65,-6 -142,-12 -226,-19zm-4723 2516c3,-17 7,-38 11,-63l29 -167 92 142c42,64 87,121 135,172 46,50 95,93 146,130 61,40 128,71 200,91 75,21 155,31 240,31l0 0c49,0 96,-5 140,-14 44,-10 86,-24 125,-42l0 -1c41,-19 79,-40 114,-65 35,-25 66,-52 94,-81l0 0c30,-32 56,-65 79,-101 23,-37 42,-76 58,-116l0 -2c18,-41 30,-83 39,-126 9,-43 13,-88 13,-133l0 0c0,-76 -9,-144 -28,-204 -18,-55 -44,-104 -80,-144l-2 -2c-34,-43 -76,-82 -124,-119l0 0c-48,-37 -103,-71 -164,-103l0 0c-52,-26 -103,-50 -153,-71 -50,-21 -97,-38 -142,-52l-3 -1c-46,-17 -93,-36 -140,-57l0 0c-50,-22 -100,-46 -150,-72l-1 0c-29,-16 -57,-31 -84,-47l0 0c-28,-17 -58,-35 -89,-54 -30,-20 -60,-41 -88,-66 -29,-24 -56,-51 -81,-79l-2 -2c-23,-29 -45,-61 -65,-96 -20,-35 -38,-73 -54,-115l-1 -1c-16,-43 -28,-90 -36,-143 -8,-51 -12,-106 -12,-166l0 0c0,-144 27,-279 84,-400 55,-115 137,-217 249,-301 50,-38 103,-72 160,-100 57,-29 117,-52 179,-69l0 0c65,-18 129,-31 194,-40 66,-9 131,-13 196,-13 121,0 244,16 362,51l0 0c107,33 210,82 301,151l42 32 -21 48c-1,3 -6,14 -13,31l0 0c-5,11 -8,20 -11,28l-29 87 -1 0c-12,36 -21,73 -31,110l-13 52 -50 183 -76 -174c-54,-124 -119,-219 -204,-282 -84,-62 -191,-94 -333,-94 -44,0 -86,3 -127,11 -40,7 -78,17 -114,31 -36,15 -71,32 -102,51 -31,20 -60,42 -87,68 -24,24 -47,51 -68,80 -20,30 -38,61 -54,94l0 0c-14,32 -25,64 -32,98 -7,34 -10,70 -10,109 0,74 9,142 27,202 17,58 43,109 77,153l0 0c36,42 79,81 129,118 52,39 112,75 178,108l1 0c52,27 104,52 156,74 52,22 103,42 154,60l0 0c53,18 105,37 156,59 52,22 102,45 151,70l0 0c32,16 63,34 94,52 29,18 59,38 89,59 29,21 57,45 82,70 25,25 48,52 68,80 23,28 43,58 61,92 17,32 33,68 46,107l0 0c13,37 23,78 29,121 7,43 10,88 10,136 0,86 -8,168 -24,246 -16,77 -41,150 -72,217l0 0c-32,67 -70,130 -114,188 -44,58 -93,111 -147,159l0 1c-53,46 -111,87 -174,123 -63,35 -130,65 -203,89l0 0c-70,24 -143,42 -218,54 -75,12 -152,18 -230,18 -30,0 -64,-1 -100,-5 -37,-3 -72,-8 -108,-14l0 0c-35,-5 -70,-12 -106,-21 -36,-8 -72,-19 -109,-32l0 0c-34,-11 -69,-23 -104,-37 -34,-13 -68,-28 -102,-44l-3 -2c-26,-14 -50,-29 -74,-46 -23,-17 -44,-34 -63,-53l-31 -28 12 -39c10,-33 19,-64 26,-94 7,-32 13,-59 17,-83l0 -3c4,-18 8,-38 12,-58zm-815 -2776l58 0 134 0 -81 107c-12,16 -28,38 -47,63 -16,22 -30,42 -42,59 -24,33 -47,66 -70,100l0 1c-22,33 -44,67 -64,99l-1 2c-15,23 -35,55 -62,96 -26,43 -47,76 -61,99 -32,50 -54,87 -68,109 -17,27 -42,67 -76,121 -37,59 -65,102 -83,131l0 0c-38,59 -67,104 -85,132 -31,48 -59,92 -84,133 -22,34 -48,76 -79,126l0 0c-17,30 -31,53 -45,77 -66,113 -133,227 -183,346l0 1405 0 73 -73 -7 -46 -4 0 0c-16,-1 -32,-3 -49,-3 -14,-1 -31,-1 -51,-1l0 -1 -101 1 -44 5 -75 9 0 -76 0 -1310 -1109 -1793 -70 -113 132 12 30 2 116 0 112 0 52 -4c17,-2 38,-4 64,-6l45 -5 21 41 25 50c16,27 34,59 53,94 20,37 41,76 62,117l0 0c21,39 44,83 69,129 24,46 49,94 75,144 26,46 52,92 79,138 27,46 51,87 74,125l1 2c49,87 88,157 120,213 32,55 72,126 118,207l0 0c43,73 86,144 129,213 27,44 53,87 79,129 19,-26 37,-52 54,-79 36,-52 70,-106 102,-163l0 0 176 -306 0 0c38,-66 64,-114 80,-142 24,-44 46,-83 64,-117l1 -2c22,-37 43,-72 61,-105 21,-36 40,-70 58,-103l-1 0c14,-26 35,-65 62,-116 15,-29 38,-73 68,-129 38,-70 63,-117 74,-137l89 -162 22 -41 45 7 60 8 86 0z"/>
   <path class="fil2" d="M12321 5872c1,-3 78,-727 530,-1918 532,-1398 1072,-1821 1073,-1822 15,-11 36,-9 47,5 8,10 10,23 5,34l-1591 3717c-7,17 -26,25 -43,18 -14,-6 -22,-20 -21,-34l0 0z"/>
  </g>
 </g>
</svg>
